<?xml version="1.0" encoding="UTF-8"?>
<svg version="1.1" xmlns="http://www.w3.org/2000/svg" width="439" height="416">
<path d="M0 0 C144.87 0 289.74 0 439 0 C439 137.28 439 274.56 439 416 C294.13 416 149.26 416 0 416 C0 278.72 0 141.44 0 0 Z " fill="#121826" transform="translate(0,0)"/>
<path d="M0 0 C0.33 0 0.66 0 1 0 C1 10.23 1 20.46 1 31 C5.62 31 10.24 31 15 31 C13.30057328 35.24856679 11.57958505 38.3980913 9.0859375 42.17578125 C8.71143463 42.74580368 8.33693176 43.31582611 7.95108032 43.90312195 C6.76322813 45.70903967 5.56923307 47.51079717 4.375 49.3125 C3.5646938 50.54204736 2.75479365 51.77186243 1.9453125 53.00195312 C-0.03176966 56.00441383 -2.01437909 59.00317739 -4 62 C-3.36932114 61.99111755 -2.73864227 61.98223511 -2.08885193 61.9730835 C4.54736148 61.88375509 11.18340083 61.82391563 17.82006836 61.78027344 C20.28823803 61.76030781 22.75636133 61.73312563 25.22436523 61.69824219 C47.43126442 61.39249828 66.96711378 62.75651571 83.90722656 78.76000977 C92.98165461 87.73001227 100.71284995 100.95477351 101.125 113.9375 C101.08375 114.948125 101.0425 115.95875 101 117 C101.71285156 116.95359375 102.42570313 116.9071875 103.16015625 116.859375 C111.12908 116.55906563 115.10708081 117.56815393 121.15820312 122.90258789 C124.01639332 127.70930304 123.57114408 132.3789839 123.53125 137.87109375 C123.5350769 139.02617935 123.53890381 140.18126495 123.54284668 141.37135315 C123.5455658 143.8114611 123.53820477 146.25159821 123.52148438 148.69165039 C123.50009608 152.4207484 123.52127801 156.14791538 123.546875 159.87695312 C123.54423134 162.25000424 123.53910559 164.62305416 123.53125 166.99609375 C123.53934692 168.10875107 123.54744385 169.22140839 123.55578613 170.36778259 C123.46496362 177.89157929 122.45011969 181.42237589 117.203125 186.86328125 C114.00424579 188.5137668 111.31910132 188.2866417 107.75 188.1875 C106.48671875 188.16042969 105.2234375 188.13335937 103.921875 188.10546875 C102.95765625 188.07066406 101.9934375 188.03585938 101 188 C101.06380859 189.50820313 101.06380859 189.50820313 101.12890625 191.046875 C100.67525279 204.95891441 92.52515694 217.9636011 83.2734375 227.87109375 C72.97007534 237.51943116 58.56890701 244.07042941 44.27894592 244.14717102 C43.35833374 244.15432632 42.43772156 244.16148163 41.48921204 244.16885376 C40.49125107 244.17154266 39.4932901 244.17423157 38.46508789 244.17700195 C37.40419952 244.18357315 36.34331116 244.19014435 35.25027466 244.19691467 C31.74106774 244.21661428 28.23190365 244.22830554 24.72265625 244.23828125 C22.91882382 244.24439454 22.91882382 244.24439454 21.07855034 244.25063133 C14.70821175 244.27148209 8.33789461 244.28578576 1.9675293 244.29516602 C-4.58560566 244.30620266 -11.13839848 244.34057417 -17.69141293 244.38033772 C-22.75235081 244.406594 -27.81320846 244.41486607 -32.87420845 244.41844749 C-35.28811505 244.42329347 -37.70201855 244.43485004 -40.11585808 244.45348549 C-61.72075544 244.60985695 -80.23013484 242.34379087 -96.52734375 226.6328125 C-106.37137596 216.15117315 -113.18904087 202.52177578 -113 188 C-114.41152344 188.08701172 -114.41152344 188.08701172 -115.8515625 188.17578125 C-127.29756637 188.59049154 -127.29756637 188.59049154 -130.6875 185.9375 C-135.96501535 179.23362915 -136.45010455 173.52546045 -136.3984375 165.24609375 C-136.40130768 164.22701431 -136.40417786 163.20793488 -136.40713501 162.15797424 C-136.40916892 160.0122929 -136.40368637 157.86659273 -136.39111328 155.72094727 C-136.37503387 152.4444015 -136.39099395 149.1690861 -136.41015625 145.89257812 C-136.40817402 143.80208062 -136.40433078 141.71158388 -136.3984375 139.62109375 C-136.40451019 138.64595322 -136.41058289 137.67081268 -136.4168396 136.66612244 C-136.35455088 130.61983762 -135.7512006 126.01629024 -131.5 121.35546875 C-126.91696869 117.78691052 -124.04577102 116.87004975 -118.3125 116.9375 C-117.31863281 116.94652344 -116.32476562 116.95554687 -115.30078125 116.96484375 C-114.54152344 116.97644531 -113.78226563 116.98804688 -113 117 C-112.97873047 116.01773438 -112.97873047 116.01773438 -112.95703125 115.015625 C-112.1780043 100.10883911 -104.56993479 86.60412307 -93.91015625 76.39453125 C-80.67403538 65.50360226 -66.66029628 61.81659206 -49.81640625 61.90234375 C-48.23314796 61.90446617 -48.23314796 61.90446617 -46.61790466 61.90663147 C-43.26607357 61.91220278 -39.91431071 61.92474998 -36.5625 61.9375 C-34.28190201 61.94251871 -32.00130297 61.94708097 -29.72070312 61.95117188 C-24.14710936 61.96216281 -18.57356623 61.97940762 -13 62 C-13 55.73 -13 49.46 -13 43 C-17.62 43 -22.24 43 -27 43 C-25.30509669 38.76274173 -23.63504146 35.72556674 -21.11328125 31.9921875 C-20.54313545 31.1429924 -20.54313545 31.1429924 -19.96147156 30.27664185 C-18.7495093 28.47311164 -17.53134209 26.67388617 -16.3125 24.875 C-14.7232181 22.51960106 -13.13677961 20.16229817 -11.55078125 17.8046875 C-10.97192673 16.94686676 -10.97192673 16.94686676 -10.38137817 16.07171631 C-7.25122089 11.41788589 -4.25199487 6.68848029 -1.30151367 1.91845703 C-0.87201416 1.28536621 -0.44251465 0.65227539 0 0 Z " fill="#A45AEF" transform="translate(222,35)"/>
<path d="M0 0 C0.95722961 -0.0071553 1.91445923 -0.01431061 2.9006958 -0.02168274 C3.94436813 -0.02437164 4.98804047 -0.02706055 6.06333923 -0.02983093 C7.72020248 -0.03968773 7.72020248 -0.03968773 9.41053772 -0.04974365 C13.0694638 -0.06946789 16.7283488 -0.08113882 20.38731384 -0.09111023 C21.63866056 -0.09518576 22.89000729 -0.09926128 24.17927361 -0.10346031 C30.12252086 -0.12216961 36.06575513 -0.13673417 42.00902468 -0.14507228 C48.84613245 -0.15482507 55.68291478 -0.18109588 62.51990801 -0.22157317 C68.45937544 -0.25551679 74.39876436 -0.2672293 80.33833122 -0.27127647 C82.85519552 -0.27613516 85.37205653 -0.28772851 87.88885689 -0.30631447 C91.42123597 -0.33077394 94.95277564 -0.32972766 98.48521423 -0.32279968 C99.51471695 -0.33560974 100.54421967 -0.3484198 101.60491943 -0.36161804 C111.4356832 -0.29174574 120.20373209 2.18876874 127.43809509 9.08076477 C133.38615849 15.95090786 136.33214618 22.28987085 136.38829041 31.31758118 C136.39789795 32.56633026 136.40750549 33.81507935 136.41740417 35.10166931 C136.4222544 36.46318884 136.42653268 37.82471051 136.43028259 39.18623352 C136.43452366 40.22113482 136.43452366 40.22113482 136.4388504 41.27694321 C136.45382549 44.93242015 136.46306386 48.58785785 136.46739197 52.24336243 C136.47285542 55.99554017 136.49684269 59.74735114 136.52536392 63.49941444 C136.5441176 66.40445452 136.54920274 69.30940878 136.55072784 72.21450424 C136.55372936 73.59622057 136.56167193 74.9779363 136.57491302 76.35959244 C136.68227121 88.42946626 135.53262091 98.01328554 127.22715759 107.14717102 C121.65227088 112.57138512 113.32623092 116.24391432 105.54333496 116.30780029 C104.58051102 116.31784592 103.61768707 116.32789154 102.62568665 116.33824158 C101.57063934 116.34407257 100.51559204 116.34990356 99.42857361 116.35591125 C98.31599686 116.36569504 97.2034201 116.37547882 96.05712891 116.38555908 C92.36511939 116.41553618 88.67314633 116.43690995 84.98106384 116.45576477 C83.71901564 116.4623366 82.45696743 116.46890842 81.15667534 116.4756794 C75.84744033 116.50157571 70.53821977 116.5250615 65.22894382 116.54017544 C57.64421787 116.56202502 50.06020493 116.60386802 42.47576386 116.67361301 C36.48447765 116.72681499 30.49351621 116.74668723 24.50198174 116.755373 C21.96358155 116.76390963 19.42519342 116.78268298 16.88694954 116.81211662 C-10.26790437 117.10994337 -10.26790437 117.10994337 -20.22595215 107.87127686 C-27.36211969 100.55846153 -29.85888154 92.98765308 -29.94984436 82.86323547 C-29.9626796 81.61456192 -29.97551483 80.36588837 -29.98873901 79.07937622 C-29.99690929 77.72307232 -30.00435247 76.36676388 -30.01112366 75.01045227 C-30.01519918 74.32143515 -30.01927471 73.63241802 -30.02347374 72.92252159 C-30.04428346 69.2735309 -30.05860561 65.62457722 -30.06800842 61.97554016 C-30.07904671 58.23112883 -30.11343055 54.48731599 -30.15318012 50.74311543 C-30.17948666 47.84236647 -30.18771269 44.94175699 -30.1912899 42.04089928 C-30.19612177 40.6619533 -30.20763723 39.28301211 -30.2263279 37.90418434 C-30.38036301 25.78529092 -28.44484367 17.05077983 -19.99549866 8.12763977 C-14.117264 2.88991575 -7.86373805 0.04048492 0 0 Z " fill="#FDFDFD" transform="translate(162.77284240722656,129.8528289794922)"/>
<path d="M0 0 C1.38519333 -0.01007584 1.38519333 -0.01007584 2.79837036 -0.02035522 C5.82112154 -0.03919708 8.843649 -0.04325259 11.86645508 -0.04541016 C13.99099311 -0.0518483 16.11553029 -0.0585774 18.24006653 -0.06558228 C22.68399101 -0.07752104 27.12783797 -0.08126667 31.57177734 -0.08007812 C37.2290423 -0.07987528 42.88580298 -0.1071573 48.54294872 -0.14162254 C52.92967451 -0.16400719 57.31628122 -0.16791212 61.70305824 -0.16685867 C63.78678433 -0.16919803 65.87051455 -0.17792606 67.95418358 -0.19352341 C83.17359045 -0.29677574 97.48932749 0.29476745 110.63598633 8.91552734 C111.28374023 9.30998047 111.93149414 9.70443359 112.59887695 10.11083984 C114.17841987 11.10035244 115.69645167 12.18690472 117.19848633 13.29052734 C117.19848633 13.95052734 117.19848633 14.61052734 117.19848633 15.29052734 C117.85848633 15.29052734 118.51848633 15.29052734 119.19848633 15.29052734 C119.19848633 15.95052734 119.19848633 16.61052734 119.19848633 17.29052734 C119.85848633 17.29052734 120.51848633 17.29052734 121.19848633 17.29052734 C123.77701304 20.4469997 125.96212385 23.88584097 128.19848633 27.29052734 C128.6084082 27.90798828 129.01833008 28.52544922 129.44067383 29.16162109 C132.37654674 33.90681104 133.73688296 38.96545011 135.19848633 44.29052734 C135.52848633 45.28052734 135.85848633 46.27052734 136.19848633 47.29052734 C137.13184958 51.12188557 137.30426555 54.6646182 137.26098633 58.60302734 C137.25196289 59.67166016 137.24293945 60.74029297 137.23364258 61.84130859 C137.21624023 63.05367187 137.21624023 63.05367187 137.19848633 64.29052734 C133.4102936 65.72462888 131.13327354 64.80062232 127.44848633 63.35302734 C126.46364258 62.97275391 125.47879883 62.59248047 124.46411133 62.20068359 C123.71645508 61.90033203 122.96879883 61.59998047 122.19848633 61.29052734 C122.10051758 60.54029297 122.00254883 59.79005859 121.90161133 59.01708984 C120.20911058 47.43221406 117.32596217 38.1507438 108.19848633 30.29052734 C102.60747302 26.96713356 96.91794684 25.17676305 90.41891479 25.14335632 C88.98090263 25.13262337 88.98090263 25.13262337 87.51383972 25.12167358 C85.94597466 25.11764023 85.94597466 25.11764023 84.34643555 25.11352539 C83.24025375 25.10695419 82.13407196 25.100383 80.99436951 25.09361267 C77.33063691 25.07389004 73.66694532 25.06221848 70.00317383 25.05224609 C68.12428152 25.0461328 68.12428152 25.0461328 66.20743179 25.03989601 C60.25938117 25.02118815 54.31134353 25.00662262 48.36327064 24.99828404 C41.51766313 24.98852667 34.67238025 24.96224302 27.82688701 24.92178315 C21.88207672 24.88786388 15.93734497 24.87612908 9.99243546 24.87207985 C7.47195359 24.86721774 4.9514751 24.85561456 2.43105698 24.83704185 C-1.10392095 24.81261487 -4.63805867 24.81362266 -8.1730957 24.82055664 C-9.72274269 24.80134155 -9.72274269 24.80134155 -11.30369568 24.78173828 C-19.72616031 24.84168542 -27.79848899 26.76810957 -34.17651367 32.60302734 C-34.78237305 33.13541016 -35.38823242 33.66779297 -36.01245117 34.21630859 C-37.68078068 36.15055088 -38.44920965 37.65215035 -39.51245117 39.93115234 C-40.7059018 42.10565984 -41.30380792 43.08476703 -43.61743164 44.04125977 C-45.77596376 44.42658493 -47.86198428 44.61777719 -50.05151367 44.72802734 C-50.7965918 44.79183594 -51.54166992 44.85564453 -52.30932617 44.92138672 C-54.13784774 45.07376352 -55.96962512 45.1861523 -57.80151367 45.29052734 C-56.72136209 31.76643763 -48.63387023 22.05087229 -38.80151367 13.29052734 C-37.87338867 12.38302734 -36.94526367 11.47552734 -35.98901367 10.54052734 C-24.99146482 2.77755168 -13.24555315 -0.01416561 0 0 Z " fill="#6F89FD" transform="translate(177.801513671875,105.70947265625)"/>
<path d="M0 0 C4.82522625 2.65060784 7.80773543 5.99943157 9.859375 11.171875 C12.13709612 19.36367903 11.53719348 27.80061303 7.75 35.375 C5.23597362 39.62950618 2.21361978 41.81204427 -2.2890625 43.64453125 C-9.93120715 45.52986245 -19.78468649 46.03912464 -27.0625 42.6875 C-32.28213667 38.90070477 -34.55430278 35.55423563 -36.25 29.375 C-37.24732316 20.66097072 -37.54496519 11.67346553 -32.25 4.375 C-24.30875858 -3.36261985 -10.10773795 -4.0977316 0 0 Z " fill="#EEEFF0" transform="translate(193.25,310.625)"/>
<path d="M0 0 C1.21623047 -0.02900391 2.43246094 -0.05800781 3.68554688 -0.08789062 C10.93565433 -0.13903083 15.81658267 0.31516623 21.9375 4.3125 C24.48959241 7.26335685 24.89588152 8.92406087 25.3125 12.8125 C24.80984662 17.50393151 23.22750781 20.02249219 19.9375 23.3125 C20.7625 24.158125 21.5875 25.00375 22.4375 25.875 C24.57282351 28.45316049 24.93894304 29.32260131 25.4375 32.8125 C24.87225268 36.76923126 24.2617665 39.04400024 21.9375 42.3125 C14.79074369 47.06268779 8.33023501 46.79292356 -0.0625 46.5625 C-1.31417969 46.54445313 -2.56585938 46.52640625 -3.85546875 46.5078125 C-6.92528242 46.46094512 -9.99348174 46.3953431 -13.0625 46.3125 C-14.21257105 44.01235789 -14.18920485 42.71134232 -14.19189453 40.15405273 C-14.19504669 39.29653915 -14.19819885 38.43902557 -14.20144653 37.55552673 C-14.1994223 36.62841385 -14.19739807 35.70130096 -14.1953125 34.74609375 C-14.19626923 33.79686539 -14.19722595 32.84763702 -14.19821167 31.86964417 C-14.1988928 29.861419 -14.19704319 27.85319165 -14.19287109 25.8449707 C-14.18751601 22.75922745 -14.1928214 19.67362937 -14.19921875 16.58789062 C-14.19855807 14.64062468 -14.19727713 12.69335882 -14.1953125 10.74609375 C-14.19733673 9.81695663 -14.19936096 8.88781952 -14.20144653 7.93052673 C-14.19829437 7.07616531 -14.19514221 6.22180389 -14.19189453 5.34155273 C-14.19070114 4.20809669 -14.19070114 4.20809669 -14.18948364 3.05174255 C-13.81527821 -2.07359487 -3.77450342 0.02935073 0 0 Z " fill="#F2F3F4" transform="translate(124.0625,308.6875)"/>
<path d="M0 0 C3.17852316 1.64448689 5.37801764 3.75603527 7 7 C7.29826075 11.24394198 7.27812621 15.4968166 7.3125 19.75 C7.34150391 20.93078125 7.37050781 22.1115625 7.40039062 23.328125 C7.48132681 34.38525365 7.48132681 34.38525365 3 39 C0.17379547 40.95142694 -2.10034249 41.27328533 -5.5 41.25 C-6.2528125 41.25515625 -7.005625 41.2603125 -7.78125 41.265625 C-11.19817584 40.85655641 -13.21584748 39.82118962 -15.59204102 37.33276367 C-18.26378602 32.90610796 -17.47863555 27.6232425 -17.44604492 22.58276367 C-17.43753896 20.57171098 -17.46630173 18.56350634 -17.49804688 16.55273438 C-17.49740234 15.27849609 -17.49675781 14.00425781 -17.49609375 12.69140625 C-17.49794678 11.52810791 -17.4997998 10.36480957 -17.50170898 9.16625977 C-16.90030737 5.37084493 -15.65823209 3.72207677 -13 1 C-9.03716439 -0.98141781 -4.30789762 -0.55820645 0 0 Z " fill="#161C29" transform="translate(270,161)"/>
<path d="M0 0 C3.00197464 1.80118478 4.45166366 2.90332732 6 6 C6.28042286 10.08529957 6.31359145 14.17223534 6.35009766 18.26635742 C6.36663597 19.62525586 6.39389921 20.98406805 6.43212891 22.3425293 C6.48709607 24.30724686 6.50566889 26.27287525 6.5234375 28.23828125 C6.54325684 29.41430908 6.56307617 30.59033691 6.58349609 31.80200195 C5.82710377 35.94760154 4.23585595 37.39173465 1 40 C-3.05671355 41.35223785 -6.75834954 41.54418363 -11 41 C-14.60612419 38.8516707 -16.45140792 36.85478095 -18 33 C-18.47756033 28.7206028 -18.41633615 24.42831699 -18.4375 20.125 C-18.47037109 18.95324219 -18.50324219 17.78148437 -18.53710938 16.57421875 C-18.5972847 6.9352251 -18.5972847 6.9352251 -15.59765625 3.2421875 C-10.80741017 -0.89255122 -6.14692975 -0.66525214 0 0 Z " fill="#161C29" transform="translate(173,161)"/>
<path d="M0 0 C1.39025391 -0.03287109 1.39025391 -0.03287109 2.80859375 -0.06640625 C6.69083623 0.82017678 8.09068927 2.47791206 10.5625 5.5625 C11.68963307 7.96969373 12.60007083 10.18859394 13.4375 12.6875 C13.9384034 14.10430768 14.43972438 15.52096778 14.94140625 16.9375 C15.20066895 17.68386719 15.45993164 18.43023437 15.72705078 19.19921875 C16.60678942 21.68778393 17.52981177 24.15670399 18.46484375 26.625 C18.78275879 27.46788574 19.10067383 28.31077148 19.42822266 29.17919922 C20.0464941 30.81718809 20.66715735 32.45427672 21.29052734 34.09033203 C22.83769657 38.24353929 24.01776895 42.13390729 24.5625 46.5625 C21.5925 46.5625 18.6225 46.5625 15.5625 46.5625 C15.10359375 45.22316406 14.6446875 43.88382812 14.171875 42.50390625 C13.55229039 40.71086594 12.93248701 38.91790121 12.3125 37.125 C12.01214844 36.24650391 11.71179688 35.36800781 11.40234375 34.46289062 C9.62986453 29.35287076 7.64550466 24.4354154 5.40136719 19.51586914 C4.41242556 17.2130397 3.78112166 14.96026372 3.3125 12.5 C3.16296875 11.74589844 3.0134375 10.99179687 2.859375 10.21484375 C2.76140625 9.66957031 2.6634375 9.12429688 2.5625 8.5625 C0.62574106 8.57428848 0.62574106 8.57428848 -1.4375 9.5625 C-2.98892899 12.3337272 -2.98892899 12.3337272 -4.1875 15.875 C-4.69581814 17.22816404 -5.20498044 18.58101117 -5.71484375 19.93359375 C-5.9866748 20.6694873 -6.25850586 21.40538086 -6.53857422 22.16357422 C-8.20674069 26.61534058 -9.98487833 31.0235064 -11.75 35.4375 C-12.0996582 36.32348877 -12.44931641 37.20947754 -12.80957031 38.12231445 C-13.13666992 38.94562256 -13.46376953 39.76893066 -13.80078125 40.6171875 C-14.09251221 41.35437012 -14.38424316 42.09155273 -14.68481445 42.85107422 C-15.4375 44.5625 -15.4375 44.5625 -16.4375 45.5625 C-19.10808851 45.70365161 -21.76182238 45.60497107 -24.4375 45.5625 C-23.7229134 40.4775432 -21.69116958 35.96247988 -19.75 31.25 C-16.62006418 23.58449738 -16.62006418 23.58449738 -13.71484375 15.83203125 C-13.45469482 15.10862549 -13.1945459 14.38521973 -12.92651367 13.63989258 C-12.44728213 12.29275641 -11.97682949 10.9424523 -11.5168457 9.58862305 C-9.2821618 3.33930835 -6.89554959 -0.00956387 0 0 Z " fill="#F0F1F2" transform="translate(282.4375,308.4375)"/>
<path d="M0 0 C1.31613281 -0.02578125 2.63226563 -0.0515625 3.98828125 -0.078125 C8.7459211 0.34388318 11.06717432 1.70784793 14.46875 4.9453125 C16.22638653 8.26904825 16.20097069 11.45423656 16.1875 15.125 C16.21585938 15.81980469 16.24421875 16.51460938 16.2734375 17.23046875 C16.28999979 21.62775652 15.51122924 24.91162343 12.41259766 28.15576172 C8.80576151 30.44359637 4.75657082 30.02393911 0.625 29.875 C-0.72174805 29.88466797 -0.72174805 29.88466797 -2.09570312 29.89453125 C-8.56814598 29.7886623 -8.56814598 29.7886623 -11.87109375 27.3984375 C-15.75701604 21.60641241 -14.97493804 13.93918408 -14.3125 7.25 C-11.30764683 0.69089886 -6.57783883 0.05016464 0 0 Z " fill="#151B28" transform="translate(179.3125,316.75)"/>
<path d="M0 0 C0.8971875 1.36125 0.8971875 1.36125 1.8125 2.75 C4.33092602 6.49166151 6.96169835 8.98084917 11 11 C22.36813118 11.99926677 22.36813118 11.99926677 32.48046875 7.51171875 C34.80464073 5.19949624 36.40198062 2.86311806 38 0 C39.4589426 0.47730838 40.91713496 0.95691042 42.375 1.4375 C43.59316406 1.83775391 43.59316406 1.83775391 44.8359375 2.24609375 C47 3 47 3 49 4 C46.87397335 11.55920586 40.60002692 17.2776464 33.9453125 21.03515625 C26.0666168 24.94286275 16.6813874 25.30149753 8.15234375 23.34765625 C0.71729153 20.67011812 -5.38361076 15.99612496 -9.5625 9.25 C-11 6 -11 6 -10 3 C-8.22265625 2.05078125 -8.22265625 2.05078125 -6.0625 1.3125 C-5.35222656 1.06113281 -4.64195312 0.80976563 -3.91015625 0.55078125 C-2 0 -2 0 0 0 Z " fill="#1B202D" transform="translate(198,202)"/>
<path d="M0 0 C11.55 0 23.1 0 35 0 C35 2.64 35 5.28 35 8 C30.38 8 25.76 8 21 8 C21 20.54 21 33.08 21 46 C18.36 46 15.72 46 13 46 C13 33.46 13 20.92 13 8 C8.71 8 4.42 8 0 8 C0 5.36 0 2.72 0 0 Z " fill="#F4F5F6" transform="translate(208,309)"/>
<path d="M0 0 C0.33 0 0.66 0 1 0 C1 10.23 1 20.46 1 31 C5.62 31 10.24 31 15 31 C13.52242465 34.69393838 12.33776361 37.2345836 10.1796875 40.42578125 C9.37724609 41.61977539 9.37724609 41.61977539 8.55859375 42.83789062 C8.00300781 43.65451172 7.44742188 44.47113281 6.875 45.3125 C6.03001953 46.56643555 6.03001953 46.56643555 5.16796875 47.84570312 C3.78279211 49.89999052 2.39337781 51.95127038 1 54 C0.4284668 52.12719727 0.4284668 52.12719727 0 50 C1.14453125 47.96484375 1.14453125 47.96484375 2.8125 45.9375 C3.62654297 44.93009766 3.62654297 44.93009766 4.45703125 43.90234375 C4.96621094 43.27457031 5.47539062 42.64679688 6 42 C6.66 41.01 7.32 40.02 8 39 C7.01 37.68 6.02 36.36 5 35 C5.495 34.01 5.495 34.01 6 33 C4.02 33.33 2.04 33.66 0 34 C-0.495 23.605 -0.495 23.605 -1 13 C-3.475 12.505 -3.475 12.505 -6 12 C-6.2475 12.70125 -6.495 13.4025 -6.75 14.125 C-8 17 -8 17 -10 19.875 C-12.18957057 22.95992006 -12.18957057 22.95992006 -13.0625 26.8125 C-13.371875 27.864375 -13.68125 28.91625 -14 30 C-14.99 30.33 -15.98 30.66 -17 31 C-17.0928125 32.1446875 -17.0928125 32.1446875 -17.1875 33.3125 C-18.256507 36.84844623 -19.87906619 37.23947323 -23 39 C-23 39.99 -23 40.98 -23 42 C-19.37 42 -15.74 42 -12 42 C-12 49.59 -12 57.18 -12 65 C-12.33 64.34 -12.66 63.68 -13 63 C-13.99 63.66 -14.98 64.32 -16 65 C-18.04296875 65.1953125 -18.04296875 65.1953125 -20.1875 65.125 C-21.445625 65.08375 -22.70375 65.0425 -24 65 C-24 64.34 -24 63.68 -24 63 C-25.02613403 63.48895752 -25.02613403 63.48895752 -26.07299805 63.98779297 C-29.49728421 65.17196933 -32.21232336 65.2272042 -35.83203125 65.1953125 C-37.12431641 65.18886719 -38.41660156 65.18242188 -39.74804688 65.17578125 C-41.1028673 65.15907327 -42.45768501 65.14214342 -43.8125 65.125 C-45.18684251 65.11496003 -46.56119203 65.10583596 -47.93554688 65.09765625 C-51.29054317 65.07411242 -54.64518199 65.04122567 -58 65 C-58 64.34 -58 63.68 -58 63 C-58.99 62.67 -59.98 62.34 -61 62 C-45.16 62 -29.32 62 -13 62 C-13 55.73 -13 49.46 -13 43 C-17.62 43 -22.24 43 -27 43 C-25.30509669 38.76274173 -23.63504146 35.72556674 -21.11328125 31.9921875 C-20.73318405 31.42605743 -20.35308685 30.85992737 -19.96147156 30.27664185 C-18.7495093 28.47311164 -17.53134209 26.67388617 -16.3125 24.875 C-14.7232181 22.51960106 -13.13677961 20.16229817 -11.55078125 17.8046875 C-10.97192673 16.94686676 -10.97192673 16.94686676 -10.38137817 16.07171631 C-7.25122089 11.41788589 -4.25199487 6.68848029 -1.30151367 1.91845703 C-0.87201416 1.28536621 -0.44251465 0.65227539 0 0 Z " fill="#17C2E4" transform="translate(222,35)"/>
<path d="M0 0 C2.64 0 5.28 0 8 0 C8 15.18 8 30.36 8 46 C5.36 46 2.72 46 0 46 C0 30.82 0 15.64 0 0 Z " fill="#F0F1F2" transform="translate(314,309)"/>
<path d="M0 0 C1.00937119 0.01474869 2.01874237 0.02949738 3.05870056 0.04469299 C12.68989918 0.18452606 22.32117578 0.31708102 31.9525671 0.4429636 C36.90113372 0.50786322 41.84964271 0.57510533 46.7980957 0.64819336 C67.89795472 0.95822956 88.92242119 1.25900953 110 0 C110.495 0.99 110.495 0.99 111 2 C110.67 2.66 110.34 3.32 110 4 C73.37 4 36.74 4 -1 4 C-1.33 3.34 -1.66 2.68 -2 2 C-1.34 2 -0.68 2 0 2 C0 1.34 0 0.68 0 0 Z " fill="#B24BB4" transform="translate(161,275)"/>
<path d="M0 0 C3.08386104 -0.08099635 6.16559211 -0.14049524 9.25 -0.1875 C10.12269531 -0.21263672 10.99539062 -0.23777344 11.89453125 -0.26367188 C18.41598332 -0.33834499 18.41598332 -0.33834499 21.609375 1.51171875 C22.06828125 2.00285156 22.5271875 2.49398438 23 3 C22.25 9.75 22.25 9.75 20 12 C17.93701172 12.22705078 17.93701172 12.22705078 15.4296875 12.1953125 C14.53378906 12.18886719 13.63789063 12.18242187 12.71484375 12.17578125 C11.77769531 12.15902344 10.84054688 12.14226562 9.875 12.125 C8.93011719 12.11597656 7.98523438 12.10695313 7.01171875 12.09765625 C4.67437173 12.07404668 2.33715451 12.03817494 0 12 C0 8.04 0 4.08 0 0 Z " fill="#1E2330" transform="translate(118,335)"/>
<path d="M0 0 C3.08427046 -0.10800947 6.16475747 -0.18731002 9.25 -0.25 C10.12269531 -0.28351563 10.99539062 -0.31703125 11.89453125 -0.3515625 C18.36346488 -0.45032485 18.36346488 -0.45032485 21.6171875 1.8515625 C23 4 23 4 22.875 6.625 C22 9 22 9 20 11 C17.93701172 11.22705078 17.93701172 11.22705078 15.4296875 11.1953125 C14.53378906 11.18886719 13.63789063 11.18242187 12.71484375 11.17578125 C11.77769531 11.15902344 10.84054688 11.14226562 9.875 11.125 C8.93011719 11.11597656 7.98523438 11.10695313 7.01171875 11.09765625 C4.67437173 11.07404668 2.33715451 11.03817494 0 11 C0 7.37 0 3.74 0 0 Z " fill="#181D2A" transform="translate(118,317)"/>
<path d="M0 0 C0.6875 1.75 0.6875 1.75 1 4 C-0.4375 6.125 -0.4375 6.125 -2 8 C-2 8.66 -2 9.32 -2 10 C1.63 10 5.26 10 9 10 C9 17.59 9 25.18 9 33 C8.67 32.34 8.34 31.68 8 31 C7.01 31.66 6.02 32.32 5 33 C2.95703125 33.1953125 2.95703125 33.1953125 0.8125 33.125 C-0.445625 33.08375 -1.70375 33.0425 -3 33 C-3 32.34 -3 31.68 -3 31 C-3.68408936 31.32597168 -4.36817871 31.65194336 -5.07299805 31.98779297 C-8.49728421 33.17196933 -11.21232336 33.2272042 -14.83203125 33.1953125 C-16.12431641 33.18886719 -17.41660156 33.18242188 -18.74804688 33.17578125 C-20.1028673 33.15907327 -21.45768501 33.14214342 -22.8125 33.125 C-24.18684251 33.11496003 -25.56119203 33.10583596 -26.93554688 33.09765625 C-30.29054317 33.07411242 -33.64518199 33.04122567 -37 33 C-37 32.34 -37 31.68 -37 31 C-37.99 30.67 -38.98 30.34 -40 30 C-24.16 30 -8.32 30 8 30 C8 23.73 8 17.46 8 11 C3.38 11 -1.24 11 -6 11 C-4.31482096 6.7870524 -2.56523798 3.67684111 0 0 Z " fill="#477AD4" transform="translate(201,67)"/>
<path d="M0 0 C1.4540625 0.0309375 1.4540625 0.0309375 2.9375 0.0625 C2.7835376 0.84641113 2.6295752 1.63032227 2.47094727 2.43798828 C1.80290762 6.97698899 1.59664758 11.47430998 1.40234375 16.0546875 C1.35936661 17.00062775 1.31638947 17.94656799 1.27210999 18.9211731 C1.13634653 21.92647462 1.00560201 24.93197019 0.875 27.9375 C0.78353489 29.9817857 0.69174162 32.02605675 0.59960938 34.0703125 C0.37510556 39.06754661 0.15510106 44.06496074 -0.0625 49.0625 C-0.3925 49.0625 -0.7225 49.0625 -1.0625 49.0625 C-3.07443027 42.80316138 -3.07443027 39.32183862 -1.0625 33.0625 C-1.7225 33.0625 -2.3825 33.0625 -3.0625 33.0625 C-3.2625026 29.91733435 -3.44514359 26.77137688 -3.625 23.625 C-3.70911133 22.30725586 -3.70911133 22.30725586 -3.79492188 20.96289062 C-4.10599979 15.34274968 -4.38412833 9.57967841 -3.0625 4.0625 C-2.4025 3.4025 -1.7425 2.7425 -1.0625 2.0625 C-2.0525 1.7325 -3.0425 1.4025 -4.0625 1.0625 C-3.0625 0.0625 -3.0625 0.0625 0 0 Z " fill="#AB34F7" transform="translate(132.0625,148.9375)"/>
<path d="M0 0 C1.12312088 -0.00058411 2.24624176 -0.00116821 3.40339661 -0.00177002 C7.08289458 0.00099693 10.76156306 0.03202442 14.44091797 0.06347656 C17.00494952 0.07094386 19.56898681 0.07663448 22.13302612 0.08062744 C28.17127933 0.09429323 34.20918135 0.12575652 40.24729431 0.1660254 C47.12764388 0.2109045 54.00800827 0.23277047 60.88846803 0.25280714 C75.02850897 0.29449472 89.16829108 0.36474529 103.30810547 0.45410156 C103.30810547 0.78410156 103.30810547 1.11410156 103.30810547 1.45410156 C102.73071971 1.45464633 102.15333395 1.4551911 101.55845165 1.45575237 C87.46773263 1.4707615 73.37731899 1.51337438 59.28677654 1.58619213 C52.47247982 1.62075124 45.65838348 1.64618565 38.84399414 1.6496582 C32.26263937 1.65303822 25.68172708 1.68248282 19.10050392 1.72753334 C16.59485625 1.74048148 14.08914826 1.74482561 11.5834713 1.74025536 C8.06234356 1.73533065 4.54267629 1.76152809 1.02172852 1.79467773 C-0.00470764 1.78605209 -1.0311438 1.77742645 -2.08868408 1.76853943 C-12.86916359 1.93768694 -20.98546252 6.09017764 -28.69189453 13.45410156 C-29.35189453 13.12410156 -30.01189453 12.79410156 -30.69189453 12.45410156 C-29.41781669 11.18617868 -28.12129908 9.94080345 -26.81689453 8.70410156 C-25.73794922 7.65996094 -25.73794922 7.65996094 -24.63720703 6.59472656 C-16.94153679 1.00158692 -9.31763238 -0.12892066 0 0 Z " fill="#EAEDF7" transform="translate(169.69189453125,129.5458984375)"/>
<path d="M0 0 C0.33 0.66 0.66 1.32 1 2 C1.99 1.67 2.98 1.34 4 1 C2.87548273 3.9719385 1.77706209 6.33440687 0 9 C17.49 9 34.98 9 53 9 C52.67 9.99 52.34 10.98 52 12 C51.34 11.67 50.68 11.34 50 11 C48.32731964 10.99563079 46.65420901 11.05861265 44.984375 11.15625 C43.98019531 11.20910156 42.97601563 11.26195313 41.94140625 11.31640625 C39.82937535 11.43790619 37.71739503 11.56028874 35.60546875 11.68359375 C30.50011906 11.95092368 26.04451063 11.85399196 21 11 C17.2011953 11.01403135 13.41721106 11.22464686 9.625 11.4375 C8.60277344 11.48970703 7.58054688 11.54191406 6.52734375 11.59570312 C4.01786804 11.72469487 1.5088606 11.85962858 -1 12 C-1.74010154 8.57703036 -2 5.49869895 -2 2 C-1.34 2 -0.68 2 0 2 C0 1.34 0 0.68 0 0 Z " fill="#2F8CCA" transform="translate(218,88)"/>
<path d="M0 0 C0.33 0 0.66 0 1 0 C1.33 3.96 1.66 7.92 2 12 C2.66 12 3.32 12 4 12 C5.02611524 18.44552385 4.95269998 24.49666695 4.5625 31 C4.51029297 31.96550781 4.45808594 32.93101562 4.40429688 33.92578125 C4.27586364 36.2842825 4.14096811 38.64222045 4 41 C3.01 41 2.02 41 1 41 C1 42.98 1 44.96 1 47 C0.67 47 0.34 47 0 47 C0 31.49 0 15.98 0 0 Z " fill="#854EF6" transform="translate(299,158)"/>
<path d="M0 0 C3.63 0 7.26 0 11 0 C11 0.33 11 0.66 11 1 C65.45 1.495 65.45 1.495 121 2 C121 2.33 121 2.66 121 3 C105.96184891 3.04673467 90.92370345 3.08199604 75.88549519 3.10362434 C68.9028868 3.11393396 61.92032355 3.12798828 54.93774414 3.15087891 C48.20098944 3.17295312 41.46429135 3.18456432 34.72749901 3.18975449 C32.15545093 3.19345394 29.58340547 3.20067788 27.01137733 3.21146011 C23.41288295 3.2259474 19.81458324 3.22797907 16.21606445 3.22705078 C14.61600052 3.23783661 14.61600052 3.23783661 12.98361206 3.24884033 C12.00069687 3.246091 11.01778168 3.24334167 10.00508118 3.24050903 C9.15426625 3.24235262 8.30345133 3.24419621 7.42685413 3.24609566 C4.66792453 2.96632582 2.51827856 2.13407288 0 1 C0 0.67 0 0.34 0 0 Z " fill="#F7E4F9" transform="translate(152,243)"/>
<path d="M0 0 C0.66 0 1.32 0 2 0 C2 2.97 2 5.94 2 9 C-2 10 -2 10 -4 9 C-4.2475 9.70125 -4.495 10.4025 -4.75 11.125 C-6 14 -6 14 -8 16.875 C-10.18957057 19.95992006 -10.18957057 19.95992006 -11.0625 23.8125 C-11.371875 24.864375 -11.68125 25.91625 -12 27 C-12.99 27.33 -13.98 27.66 -15 28 C-15.33 29.65 -15.66 31.3 -16 33 C-16.66 33 -17.32 33 -18 33 C-17.53383923 27.56145774 -16.24971913 24.17112456 -13.25390625 19.62890625 C-12.88273178 19.06171371 -12.51155731 18.49452118 -12.12913513 17.91014099 C-11.34913212 16.72399371 -10.56306985 15.54181055 -9.77124023 14.36352539 C-8.55552735 12.55211073 -7.36160995 10.7276783 -6.16992188 8.90039062 C-1.90766455 2.45023305 -1.90766455 2.45023305 0 0 Z " fill="#11C8E2" transform="translate(220,38)"/>
<path d="M0 0 C1.19084033 3.57252098 0.64514582 5.31376279 0 9 C-0.13380314 11.68295989 -0.2303446 14.34716058 -0.28125 17.03125 C-0.29965942 17.78539185 -0.31806885 18.53953369 -0.33703613 19.31652832 C-0.39538819 21.71094503 -0.44837416 24.10542942 -0.5 26.5 C-0.56805026 29.65638708 -0.64170423 32.81257107 -0.71875 35.96875 C-0.73232544 36.68454224 -0.74590088 37.40033447 -0.7598877 38.13781738 C-0.85909274 42.17845084 -1.23357996 46.03137153 -2 50 C-2.33 50 -2.66 50 -3 50 C-3.07596686 43.36148394 -3.12856456 36.72307965 -3.16479492 30.08422852 C-3.17989602 27.82507132 -3.20037842 25.56594351 -3.22631836 23.30688477 C-3.26264308 20.06258907 -3.27971308 16.81868044 -3.29296875 13.57421875 C-3.30845261 12.56163498 -3.32393646 11.54905121 -3.33988953 10.50578308 C-3.34022942 9.09465996 -3.34022942 9.09465996 -3.34057617 7.6550293 C-3.34723801 6.82674118 -3.35389984 5.99845306 -3.36076355 5.14506531 C-2.92060026 2.52789679 -2.0209846 1.65244463 0 0 Z " fill="#2A2B60" transform="translate(348,161)"/>
<path d="M0 0 C-0.33 0.66 -0.66 1.32 -1 2 C-21.13 2 -41.26 2 -62 2 C-62 1.67 -62 1.34 -62 1 C-54.35939669 0.71547788 -46.71859669 0.43688807 -39.07750225 0.16588497 C-35.5294998 0.0398627 -31.98159587 -0.08820733 -28.43383789 -0.22094727 C-24.35583498 -0.37343676 -20.27756134 -0.51703691 -16.19921875 -0.66015625 C-14.92414963 -0.70906509 -13.64908051 -0.75797394 -12.33537292 -0.80836487 C-11.15437515 -0.8484819 -9.97337738 -0.88859894 -8.7565918 -0.92993164 C-7.19439156 -0.98655724 -7.19439156 -0.98655724 -5.60063171 -1.04432678 C-3 -1 -3 -1 0 0 Z " fill="#DA4FE6" transform="translate(272,276)"/>
<path d="M0 0 C0.99 0 1.98 0 3 0 C3 7.59 3 15.18 3 23 C1.68 23.33 0.36 23.66 -1 24 C-1.02712325 21.12493579 -1.04689851 18.25013092 -1.0625 15.375 C-1.07087891 14.56675781 -1.07925781 13.75851563 -1.08789062 12.92578125 C-1.1058955 8.49658082 -0.89622662 4.36116576 0 0 Z " fill="#9837F4" transform="translate(300,199)"/>
<path d="M0 0 C2.64 0 5.28 0 8 0 C8 3.3 8 6.6 8 10 C5.36 10 2.72 10 0 10 C0 6.7 0 3.4 0 0 Z " fill="#DCDEDF" transform="translate(244,345)"/>
<path d="M0 0 C1.98 0 3.96 0 6 0 C4.77856859 8.14287603 1.37535506 14.0860031 -3 21 C-4.50390625 19.62890625 -4.50390625 19.62890625 -6 18 C-5.9375 15.9375 -5.9375 15.9375 -5 14 C-3.67532254 13.3162955 -2.34136367 12.65035814 -1 12 C0.3762794 10.08235826 0.3762794 10.08235826 1 8 C0.67 7.34 0.34 6.68 0 6 C-0.039992 4.00039988 -0.04346799 1.99952758 0 0 Z " fill="#A833EB" transform="translate(315,234)"/>
<path d="M0 0 C0.33 0 0.66 0 1 0 C1.33 13.53 1.66 27.06 2 41 C1.34 41 0.68 41 0 41 C0 40.01 0 39.02 0 38 C-1.485 38.495 -1.485 38.495 -3 39 C-3 37.68 -3 36.36 -3 35 C-2.34 35 -1.68 35 -1 35 C-1.01160156 33.89785156 -1.02320313 32.79570312 -1.03515625 31.66015625 C-1.11041905 21.06456535 -0.74915292 10.56840722 0 0 Z " fill="#BB4ADB" transform="translate(132,182)"/>
<path d="M0 0 C0.6875 1.75 0.6875 1.75 1 4 C-0.4375 6.125 -0.4375 6.125 -2 8 C-2 8.66 -2 9.32 -2 10 C1.63 10 5.26 10 9 10 C9 17.59 9 25.18 9 33 C8.67 33 8.34 33 8 33 C8 25.74 8 18.48 8 11 C3.38 11 -1.24 11 -6 11 C-4.31482096 6.7870524 -2.56523798 3.67684111 0 0 Z " fill="#31A0E0" transform="translate(201,67)"/>
<path d="M0 0 C0.33 0 0.66 0 1 0 C1.33 3.96 1.66 7.92 2 12 C2.66 12 3.32 12 4 12 C5.25 19.625 5.25 19.625 3 23 C2.67 21.68 2.34 20.36 2 19 C1.67 22.63 1.34 26.26 1 30 C0.67 30 0.34 30 0 30 C0 20.1 0 10.2 0 0 Z " fill="#7568EE" transform="translate(299,158)"/>
<path d="M0 0 C0.33 0 0.66 0 1 0 C1 11.22 1 22.44 1 34 C0.67 34 0.34 34 0 34 C-2.01193027 27.74066138 -2.01193027 24.25933862 0 18 C-0.66 18 -1.32 18 -2 18 C-2 16.02 -2 14.04 -2 12 C-1.34 12 -0.68 12 0 12 C0 8.04 0 4.08 0 0 Z " fill="#BB39F0" transform="translate(131,164)"/>
<path d="M0 0 C0.33 0.66 0.66 1.32 1 2 C1.99 1.67 2.98 1.34 4 1 C2.68197635 4.64991166 1.40785992 6.7895201 -1 10 C6.26 10 13.52 10 21 10 C21 10.33 21 10.66 21 11 C10.11 11.495 10.11 11.495 -1 12 C-1.73270933 8.33645334 -2 5.62494581 -2 2 C-1.34 2 -0.68 2 0 2 C0 1.34 0 0.68 0 0 Z " fill="#3AA3F3" transform="translate(218,88)"/>
<path d="M0 0 C5.20540698 0.96396425 9.59913433 1.87680501 14 5 C13.34 5.66 12.68 6.32 12 7 C11.01 6.34 10.02 5.68 9 5 C8.01 5.33 7.02 5.66 6 6 C3.375 6.125 3.375 6.125 1 6 C0 5 0 5 -0.0625 2.4375 C-0.041875 1.633125 -0.02125 0.82875 0 0 Z " fill="#2AB9F5" transform="translate(280,100)"/>
<path d="M0 0 C0.66 0.33 1.32 0.66 2 1 C-2.51410658 5.76489028 -2.51410658 5.76489028 -4.9375 6.9375 C-9.54758598 9.31239278 -12.90094683 13.31749677 -15 18 C-16.625 19.75 -16.625 19.75 -18 21 C-18.66 20.67 -19.32 20.34 -20 20 C-14.16740346 12.18183868 -8.39397435 5.11827704 0 0 Z " fill="#7150DC" transform="translate(137,105)"/>
<path d="M0 0 C0.66 0.33 1.32 0.66 2 1 C1.97679688 1.69867188 1.95359375 2.39734375 1.9296875 3.1171875 C1.91164063 4.02726563 1.89359375 4.93734375 1.875 5.875 C1.85179688 6.77992188 1.82859375 7.68484375 1.8046875 8.6171875 C1.75675164 11.18806994 1.75675164 11.18806994 4 13 C3.01 13.33 2.02 13.66 1 14 C0.30034557 12.73581754 -0.38434763 11.46334598 -1.0625 10.1875 C-1.44535156 9.47980469 -1.82820313 8.77210938 -2.22265625 8.04296875 C-3 6 -3 6 -2 3 C-1.34 3.33 -0.68 3.66 0 4 C0 2.68 0 1.36 0 0 Z " fill="#D957D6" transform="translate(115,234)"/>
<path d="M0 0 C0.66 0.99 1.32 1.98 2 3 C5.00414569 3.51184645 5.00414569 3.51184645 8.5390625 3.51171875 C10.49199219 3.56489258 10.49199219 3.56489258 12.484375 3.61914062 C13.86457809 3.64224231 15.24478657 3.66502464 16.625 3.6875 C18.01305352 3.72066445 19.40107607 3.7551533 20.7890625 3.79101562 C24.19262707 3.87374115 27.5959259 3.94281257 31 4 C31 4.33 31 4.66 31 5 C20.11 5 9.22 5 -2 5 C-1.34 3.35 -0.68 1.7 0 0 Z " fill="#0E1C31" transform="translate(220,92)"/>
<path d="M0 0 C0.66 0 1.32 0 2 0 C2 2.97 2 5.94 2 9 C-2 10 -2 10 -4 9 C-3.35494404 5.51669784 -2.01782732 2.90567134 0 0 Z " fill="#08E6FA" transform="translate(220,38)"/>
<path d="M0 0 C0.33 1.32 0.66 2.64 1 4 C0.39671875 4.02578125 -0.2065625 4.0515625 -0.828125 4.078125 C-6.10535339 4.40331983 -6.10535339 4.40331983 -10.5625 7.0625 C-11.036875 7.701875 -11.51125 8.34125 -12 9 C-12.33 8.01 -12.66 7.02 -13 6 C-14.32 6.33 -15.64 6.66 -17 7 C-14.94766315 4.7522025 -13.99332739 3.9977758 -11 3 C-9.10529184 2.9314505 -7.2083166 2.91519628 -5.3125 2.9375 C-4.31863281 2.94652344 -3.32476562 2.95554688 -2.30078125 2.96484375 C-1.16189453 2.98224609 -1.16189453 2.98224609 0 3 C0 2.01 0 1.02 0 0 Z " fill="#8C2FC8" transform="translate(109,149)"/>
<path d="M0 0 C2.97 0 5.94 0 9 0 C9 1.32 9 2.64 9 4 C9.66 4 10.32 4 11 4 C11 4.66 11 5.32 11 6 C9.5410574 5.52269162 8.08286504 5.04308958 6.625 4.5625 C5.81289062 4.29566406 5.00078125 4.02882813 4.1640625 3.75390625 C2 3 2 3 0 2 C0 1.34 0 0.68 0 0 Z " fill="#DB5CC8" transform="translate(137,269)"/>
<path d="M0 0 C0.33 0.66 0.66 1.32 1 2 C1.99 2.33 2.98 2.66 4 3 C1.34345343 6.73884332 -0.58110387 8.64978174 -5 10 C-5 8.35 -5 6.7 -5 5 C-4.360625 4.731875 -3.72125 4.46375 -3.0625 4.1875 C-0.66868314 3.11332248 -0.66868314 3.11332248 0 0 Z " fill="#8C3AE5" transform="translate(340,213)"/>
<path d="M0 0 C4.32046898 1.41680244 7.00461199 3.53763785 10.3125 6.625 C11.19550781 7.44226563 12.07851563 8.25953125 12.98828125 9.1015625 C13.65214844 9.72804688 14.31601562 10.35453125 15 11 C12 11 12 11 10 10 C10 9.34 10 8.68 10 8 C9.34 8 8.68 8 8 8 C7.34 7.34 6.68 6.68 6 6 C5.01 5.67 4.02 5.34 3 5 C3 4.34 3 3.68 3 3 C2.34 3 1.68 3 1 3 C0.67 2.01 0.34 1.02 0 0 Z " fill="#2CAFE4" transform="translate(294,106)"/>
<path d="M0 0 C0.66 0 1.32 0 2 0 C2.33 3.63 2.66 7.26 3 11 C1.68 11.33 0.36 11.66 -1 12 C-0.67 8.04 -0.34 4.08 0 0 Z " fill="#A62BF9" transform="translate(300,211)"/>
<path d="M0 0 C0.66 0.66 1.32 1.32 2 2 C1.67 2.99 1.34 3.98 1 5 C-2.96 3.68 -6.92 2.36 -11 1 C-11 0.67 -11 0.34 -11 0 C-7.02274741 -1.05280216 -3.99945368 -0.97764423 0 0 Z " fill="#6BA6F5" transform="translate(284,130)"/>
<path d="M0 0 C0.66 1.32 1.32 2.64 2 4 C1.195625 4.5775 0.39125 5.155 -0.4375 5.75 C-2.97866739 7.98126893 -3.65120368 8.74456771 -4 12 C-5.32 12 -6.64 12 -8 12 C-6.59023295 8.96147295 -4.91129772 6.4060405 -2.875 3.75 C-2.06675781 2.69039062 -2.06675781 2.69039062 -1.2421875 1.609375 C-0.83226562 1.07828125 -0.42234375 0.5471875 0 0 Z " fill="#B441F0" transform="translate(296,228)"/>
<path d="M0 0 C0.66 0.33 1.32 0.66 2 1 C-2.455 7.93 -2.455 7.93 -7 15 C-8 11 -8 11 -6.85546875 8.96484375 C-6.30503906 8.29582031 -5.75460938 7.62679687 -5.1875 6.9375 C-4.64480469 6.26589844 -4.10210937 5.59429687 -3.54296875 4.90234375 C-3.03378906 4.27457031 -2.52460938 3.64679688 -2 3 C-1.34 2.01 -0.68 1.02 0 0 Z " fill="#2DABE2" transform="translate(230,74)"/>
<path d="M0 0 C1.60332791 -0.08121924 3.20784026 -0.13929134 4.8125 -0.1875 C6.15248047 -0.23970703 6.15248047 -0.23970703 7.51953125 -0.29296875 C10 0 10 0 11.82421875 1.38671875 C13 3 13 3 13 5 C11.20601116 4.74500159 9.41479125 4.47046186 7.625 4.1875 C6.62726563 4.03667969 5.62953125 3.88585937 4.6015625 3.73046875 C2 3 2 3 0 0 Z " fill="#132B40" transform="translate(269,95)"/>
<path d="M0 0 C0.66 0.33 1.32 0.66 2 1 C1.50168276 4.68754757 0.89932357 6.60490662 -2 9 C-3.0625 7.1875 -3.0625 7.1875 -4 5 C-3 2 -3 2 0 0 Z " fill="#B438F0" transform="translate(313,246)"/>
<path d="M0 0 C0.99 0.33 1.98 0.66 3 1 C3 1.66 3 2.32 3 3 C3.99 3.33 4.98 3.66 6 4 C5.67 4.66 5.34 5.32 5 6 C6.32 6.33 7.64 6.66 9 7 C8.67 7.66 8.34 8.32 8 9 C6.25 8.875 6.25 8.875 4 8 C0 2.77777778 0 2.77777778 0 0 Z " fill="#CD50D6" transform="translate(87,212)"/>
<path d="M0 0 C1.32 0.33 2.64 0.66 4 1 C3.07038578 2.15224028 2.1309875 3.29659176 1.1875 4.4375 C0.40439453 5.39462891 0.40439453 5.39462891 -0.39453125 6.37109375 C-2 8 -2 8 -5 9 C-5 8.01 -5 7.02 -5 6 C-4.01 6 -3.02 6 -2 6 C-2 4.68 -2 3.36 -2 2 C-1.34 2 -0.68 2 0 2 C0 1.34 0 0.68 0 0 Z " fill="#B33EE0" transform="translate(305,257)"/>
<path d="M0 0 C-0.33 0.66 -0.66 1.32 -1 2 C-3.64 2 -6.28 2 -9 2 C-9 2.99 -9 3.98 -9 5 C-11.31 4.67 -13.62 4.34 -16 4 C-10.73149092 0.48766061 -6.28842188 -0.25153688 0 0 Z " fill="#566AD8" transform="translate(161,98)"/>
<path d="M0 0 C1.98 0 3.96 0 6 0 C6 0.99 6 1.98 6 3 C2.535 4.485 2.535 4.485 -1 6 C-0.67 4.02 -0.34 2.04 0 0 Z " fill="#C145E0" transform="translate(286,269)"/>
<path d="M0 0 C-0.33 0.99 -0.66 1.98 -1 3 C-1.99 3.33 -2.98 3.66 -4 4 C-4.33 5.65 -4.66 7.3 -5 9 C-5.66 9 -6.32 9 -7 9 C-6.6875 5.625 -6.6875 5.625 -6 2 C-3 0 -3 0 0 0 Z " fill="#23C0F3" transform="translate(209,62)"/>
<path d="M0 0 C0.66 0.33 1.32 0.66 2 1 C1.67 2.98 1.34 4.96 1 7 C0.34 7 -0.32 7 -1 7 C-1.66 8.98 -2.32 10.96 -3 13 C-4.46726798 9.18510326 -3.43336419 6.70988378 -2 3 C-1.34 3 -0.68 3 0 3 C0 2.01 0 1.02 0 0 Z " fill="#1F183A" transform="translate(324,227)"/>
<path d="M0 0 C0.33 0 0.66 0 1 0 C2.19287411 3.87684087 3 6.91621923 3 11 C2.34 11 1.68 11 1 11 C1 10.01 1 9.02 1 8 C0.01 8.33 -0.98 8.66 -2 9 C-2 7.68 -2 6.36 -2 5 C-1.34 5 -0.68 5 0 5 C0 3.35 0 1.7 0 0 Z " fill="#D352E8" transform="translate(131,212)"/>
<path d="M0 0 C2.83374881 3.20336822 3.5205537 5.78087253 4 10 C3.01 10 2.02 10 1 10 C1 8.02 1 6.04 1 4 C0.34 4 -0.32 4 -1 4 C-0.67 2.68 -0.34 1.36 0 0 Z " fill="#3A94E3" transform="translate(317,131)"/>
<path d="M0 0 C4 4.625 4 4.625 4 8 C2.68 7.67 1.36 7.34 0 7 C-0.38133299 5.0085944 -0.71325582 3.00720923 -1 1 C-0.67 0.67 -0.34 0.34 0 0 Z " fill="#D860E1" transform="translate(135,227)"/>
<path d="M0 0 C1.98 0.99 1.98 0.99 4 2 C4 3.98 4 5.96 4 8 C2.68 7.67 1.36 7.34 0 7 C0 4.69 0 2.38 0 0 Z " fill="#1B1939" transform="translate(106,141)"/>
<path d="M0 0 C0.99 0.33 1.98 0.66 3 1 C4.89212737 1.22179785 6.78884472 1.40614015 8.6875 1.5625 C9.68136719 1.64628906 10.67523438 1.73007812 11.69921875 1.81640625 C12.83810547 1.90728516 12.83810547 1.90728516 14 2 C14 2.33 14 2.66 14 3 C8.72 3 3.44 3 -2 3 C-1.34 2.67 -0.68 2.34 0 2 C0 1.34 0 0.68 0 0 Z " fill="#EF5ED6" transform="translate(161,275)"/>
<path d="M0 0 C1 3 1 3 0.25 4.9375 C-1.04403535 7.07265833 -2.4580985 9.03757991 -4 11 C-3.48964169 6.6109185 -2.47785723 3.66291938 0 0 Z " fill="#F4E6F7" transform="translate(138,144)"/>
<path d="M0 0 C1.32 0.33 2.64 0.66 4 1 C4 1.99 4 2.98 4 4 C2.02 4 0.04 4 -2 4 C-1.34 2.68 -0.68 1.36 0 0 Z " fill="#BB3CF1" transform="translate(282,242)"/>
<path d="M0 0 C0.66 0 1.32 0 2 0 C1.67 0.66 1.34 1.32 1 2 C0.67 1.34 0.34 0.68 0 0 Z M-2 1 C-1.34 1.33 -0.68 1.66 0 2 C-2.625 7.75 -2.625 7.75 -6 10 C-4.94124926 6.59687262 -3.99097846 3.98646769 -2 1 Z " fill="#8B3CEB" transform="translate(119,125)"/>
<path d="M0 0 C0.625 1.875 0.625 1.875 1 4 C0.34 4.66 -0.32 5.32 -1 6 C-0.67 6.66 -0.34 7.32 0 8 C-1.65 8.33 -3.3 8.66 -5 9 C-3.7508258 5.54074837 -2.32472205 2.85306797 0 0 Z " fill="#103042" transform="translate(236,68)"/>
<path d="M0 0 C1.5 1.3125 1.5 1.3125 3 3 C3 3.99 3 4.98 3 6 C2.01 6 1.02 6 0 6 C0 5.34 0 4.68 0 4 C-0.66 4 -1.32 4 -2 4 C-1.34 2.68 -0.68 1.36 0 0 Z " fill="#4C82E4" transform="translate(342,158)"/>
<path d="M0 0 C1.65 0 3.3 0 5 0 C3.68 2.31 2.36 4.62 1 7 C0.67 7 0.34 7 0 7 C0 4.69 0 2.38 0 0 Z " fill="#102432" transform="translate(201,60)"/>
<path d="M0 0 C-1.75 5.75 -1.75 5.75 -4 8 C-4 5.69 -4 3.38 -4 1 C-2 0 -2 0 0 0 Z " fill="#1E1935" transform="translate(116,127)"/>
<path d="M0 0 C2.31 0 4.62 0 7 0 C7.66 1.65 8.32 3.3 9 5 C4.545 3.02 4.545 3.02 0 1 C0 0.67 0 0.34 0 0 Z " fill="#102B40" transform="translate(286,101)"/>
<path d="M0 0 C0.33 0 0.66 0 1 0 C1 1.98 1 3.96 1 6 C-0.65 6.33 -2.3 6.66 -4 7 C-2.68 4.69 -1.36 2.38 0 0 Z " fill="#0BD8E7" transform="translate(220,38)"/>
<path d="M0 0 C1.98 0.495 1.98 0.495 4 1 C2.35 2.65 0.7 4.3 -1 6 C-0.67 4.02 -0.34 2.04 0 0 Z " fill="#A35FF5" transform="translate(141,135)"/>
<path d="M0 0 C3.68754757 0.49831724 5.60490662 1.10067643 8 4 C7.01 4.495 7.01 4.495 6 5 C3.96855359 4.06553465 1.96466413 3.06775224 0 2 C0 1.34 0 0.68 0 0 Z " fill="#28B1E7" transform="translate(286,102)"/>
<path d="M0 0 C0.33 1.32 0.66 2.64 1 4 C-0.9375 6.25 -0.9375 6.25 -3 8 C-3.66 7.67 -4.32 7.34 -5 7 C-3.35 4.69 -1.7 2.38 0 0 Z " fill="#1CB3D7" transform="translate(209,55)"/>
</svg>
