<svg version="1.1" id="Layer_1" xmlns="http://www.w3.org/2000/svg" xmlns:xlink="http://www.w3.org/1999/xlink" x="0px" y="0px"
	 width="100%" viewBox="0 0 177 113" enable-background="new 0 0 177 113" xml:space="preserve">
<path fill="#000000" opacity="1.000000" stroke="none" 
	d="
M133.000000,114.000000 
	C88.666679,114.000000 44.833359,114.000000 1.000029,114.000000 
	C1.000020,76.333359 1.000020,38.666714 1.000010,1.000055 
	C59.999958,1.000036 118.999916,1.000036 177.999908,1.000018 
	C177.999939,38.666615 177.999939,76.333229 177.999969,113.999924 
	C163.166672,114.000000 148.333328,114.000000 133.000000,114.000000 
M82.376175,98.773682 
	C88.609283,98.521286 94.842392,98.268890 101.540657,97.976227 
	C101.540657,97.976227 101.985252,97.833687 102.813255,97.973831 
	C104.208649,97.927071 105.604050,97.880302 107.848572,97.974419 
	C109.566605,97.926994 111.284637,97.879570 113.882195,97.972504 
	C116.255440,97.926193 118.628693,97.879883 121.877243,97.973618 
	C124.924515,97.592102 127.971786,97.210594 131.778122,96.941315 
	C138.173447,96.020508 141.550034,92.054550 142.978699,85.130585 
	C143.318085,83.063194 143.933243,80.998192 143.951172,78.928024 
	C144.051773,67.317223 144.293671,55.694695 143.868240,44.098881 
	C143.706833,39.699650 141.895462,35.360950 140.764099,30.318514 
	C138.882828,28.525673 137.001556,26.732832 134.634995,24.232376 
	C130.090652,23.878946 125.546326,23.525515 120.269867,23.015041 
	C118.214714,22.989927 116.159554,22.964813 113.647842,22.237053 
	C111.102066,22.206907 108.556282,22.176762 105.140007,22.009424 
	C103.089417,22.052870 101.038834,22.096317 98.109657,22.004274 
	C95.740524,22.052666 93.371384,22.101055 90.102066,22.012098 
	C87.068336,22.058390 84.034599,22.104681 80.097290,22.009357 
	C76.385605,22.303665 72.673912,22.597975 68.300957,22.993570 
	C67.861092,23.057302 67.421219,23.121033 66.350479,23.041420 
	C65.921577,23.001583 65.492668,22.961746 64.590317,22.203066 
	C59.688847,22.782141 54.787380,23.361214 49.432400,24.009182 
	C49.432400,24.009182 48.999901,24.162035 48.198036,24.028559 
	C45.577660,25.078764 42.524323,25.592791 40.424862,27.288094 
	C35.702984,31.100988 35.333599,37.055283 35.142799,42.454060 
	C34.715416,54.546852 34.874241,66.666290 35.030655,78.771820 
	C35.144760,87.602936 40.922489,95.776260 48.741955,97.234612 
	C51.827209,97.433723 54.912460,97.632835 58.902496,97.973808 
	C62.267544,97.927330 65.632591,97.880844 69.877747,97.974716 
	C72.251518,97.927589 74.625290,97.880463 77.795837,97.974449 
	C78.870865,97.929970 79.945892,97.885483 81.459229,97.985733 
	C81.459229,97.985733 81.919167,98.024696 82.376175,98.773682 
z"/>
<path fill="#4B7BEA" opacity="1.000000" stroke="none" 
	d="
M68.997635,97.834366 
	C65.632591,97.880844 62.267544,97.927330 58.450439,97.444901 
	C57.669147,72.610031 57.339912,48.304070 57.395329,24.033295 
	C60.192314,24.040045 62.604652,24.011616 65.279716,23.930735 
	C66.022079,23.647110 66.501717,23.415937 66.981354,23.184763 
	C67.421219,23.121033 67.861092,23.057302 68.717529,23.275772 
	C72.372231,27.673056 69.890198,32.585617 70.803993,37.261242 
	C69.400032,38.017673 68.199715,38.509216 66.973465,38.727875 
	C66.606575,37.965260 66.265610,37.475533 65.924637,36.985809 
	C65.804443,37.093979 65.573936,37.290474 65.579765,37.297749 
	C66.041519,37.874466 66.521759,38.436378 67.019028,39.395130 
	C69.797424,48.648731 69.950958,57.465977 67.383858,66.467201 
	C66.447792,69.749428 66.452202,73.427094 66.699867,76.876076 
	C66.872070,79.274338 68.696228,81.549477 68.890190,83.951660 
	C69.261650,88.552124 68.997841,93.203888 68.997635,97.834366 
z"/>
<path fill="#5E6AEC" opacity="1.000000" stroke="none" 
	d="
M47.995975,96.850937 
	C40.922489,95.776260 35.144760,87.602936 35.030655,78.771820 
	C34.874241,66.666290 34.715416,54.546852 35.142799,42.454060 
	C35.333599,37.055283 35.702984,31.100988 40.424862,27.288094 
	C42.524323,25.592791 45.577660,25.078764 48.545273,24.420647 
	C47.877960,26.011106 46.863411,27.209482 46.087849,28.125563 
	C46.746071,29.865398 47.797523,31.420614 47.828083,32.995636 
	C47.881691,35.759136 47.012238,38.538616 47.048012,41.304695 
	C47.287487,59.821098 47.663956,78.335732 47.995975,96.850937 
z"/>
<path fill="#5572ED" opacity="1.000000" stroke="none" 
	d="
M48.368965,97.042770 
	C47.663956,78.335732 47.287487,59.821098 47.048012,41.304695 
	C47.012238,38.538616 47.881691,35.759136 47.828083,32.995636 
	C47.797523,31.420614 46.746071,29.865398 46.087849,28.125563 
	C46.863411,27.209482 47.877960,26.011106 48.946205,24.487385 
	C48.999901,24.162035 49.432400,24.009182 49.987080,24.101456 
	C52.698067,24.128525 54.854374,24.063318 57.010681,23.998112 
	C57.339912,48.304070 57.669147,72.610031 57.998047,97.373962 
	C54.912460,97.632835 51.827209,97.433723 48.368965,97.042770 
z"/>
<path fill="#16A8DA" opacity="1.000000" stroke="none" 
	d="
M131.019043,96.829079 
	C127.971786,97.210594 124.924515,97.592102 121.439217,97.445511 
	C121.001457,72.335632 121.001724,47.753857 121.001991,23.172085 
	C125.546326,23.525515 130.090652,23.878946 134.561737,24.773197 
	C128.222427,28.165022 127.813507,28.888828 130.304413,37.110039 
	C130.591660,38.058067 130.773651,39.037983 131.003647,40.377605 
	C131.001022,41.501087 130.999191,42.250072 130.638123,43.119625 
	C129.522308,44.930168 128.322250,46.559807 128.082748,48.320133 
	C126.748573,58.126362 131.038803,67.935905 128.124985,77.824562 
	C127.737556,79.139397 128.902145,80.905136 129.326904,82.467781 
	C129.649384,83.654091 130.475769,85.032608 130.143677,86.007263 
	C129.052948,89.208344 131.203720,88.834152 133.008682,89.395721 
	C133.008911,90.864471 133.005981,91.932663 132.703644,93.140945 
	C131.942520,94.463707 131.480789,95.646393 131.019043,96.829079 
z"/>
<path fill="#1DA2DC" opacity="1.000000" stroke="none" 
	d="
M120.635925,23.093563 
	C121.001724,47.753857 121.001457,72.335632 121.001564,97.375488 
	C118.628693,97.879883 116.255440,97.926193 113.441986,97.444336 
	C113.001396,93.753098 113.129219,90.583801 112.975960,87.428154 
	C112.559593,78.855034 111.583145,70.283813 111.658348,61.719135 
	C111.735573,52.922928 112.710678,44.128162 113.466599,35.347721 
	C113.745331,32.110054 114.519661,28.915051 115.172745,25.086246 
	C115.104424,24.948977 114.604408,23.944338 114.104401,22.939701 
	C116.159554,22.964813 118.214714,22.989927 120.635925,23.093563 
z"/>
<path fill="#0BB2D5" opacity="1.000000" stroke="none" 
	d="
M130.997375,42.999062 
	C130.999191,42.250072 131.001022,41.501087 131.360001,40.330139 
	C133.483719,37.918407 135.175720,35.854824 137.044846,33.966568 
	C138.165588,32.834358 139.563049,31.976067 140.836151,30.994663 
	C141.895462,35.360950 143.706833,39.699650 143.868240,44.098881 
	C144.293671,55.694695 144.051773,67.317223 143.951172,78.928024 
	C143.933243,80.998192 143.318085,83.063194 142.569946,85.647552 
	C141.048965,87.247330 140.044006,88.478630 138.799210,89.377945 
	C136.956482,90.709229 134.943527,91.804886 133.003052,93.000854 
	C133.005981,91.932663 133.008911,90.864471 133.096802,89.117584 
	C133.635559,84.733246 134.418945,81.031380 134.461319,77.321037 
	C134.516693,72.474464 133.623917,67.608345 133.795532,62.773937 
	C134.026596,56.264290 134.883545,49.776859 135.471222,43.287094 
	C133.194687,43.140526 132.096039,43.069794 130.997375,42.999062 
z"/>
<path fill="#249CDD" opacity="1.000000" stroke="none" 
	d="
M113.876122,22.588377 
	C114.604408,23.944338 115.104424,24.948977 115.172745,25.086246 
	C114.519661,28.915051 113.745331,32.110054 113.466599,35.347721 
	C112.710678,44.128162 111.735573,52.922928 111.658348,61.719135 
	C111.583145,70.283813 112.559593,78.855034 112.975960,87.428154 
	C113.129219,90.583801 113.001396,93.753098 113.002228,97.374161 
	C111.284637,97.879570 109.566605,97.926994 107.424057,97.445908 
	C106.999496,94.939621 106.903831,92.956429 107.015602,90.985001 
	C107.560860,81.367706 108.219505,71.756187 108.656609,62.134384 
	C108.702393,61.126484 107.555222,60.064388 106.654816,58.913040 
	C105.234550,58.112373 104.120995,57.426109 102.886230,56.488083 
	C102.144440,55.892071 101.523872,55.547821 100.881302,55.253166 
	C100.859306,55.302761 100.755959,55.269722 100.930893,54.940853 
	C107.358978,50.169933 105.743698,43.589169 105.791931,37.447647 
	C105.831993,32.347046 105.935242,27.246943 106.010513,22.146618 
	C108.556282,22.176762 111.102066,22.206907 113.876122,22.588377 
z"/>
<path fill="#4381E8" opacity="1.000000" stroke="none" 
	d="
M69.437691,97.904541 
	C68.997841,93.203888 69.261650,88.552124 68.890190,83.951660 
	C68.696228,81.549477 66.872070,79.274338 66.699867,76.876076 
	C66.452202,73.427094 66.447792,69.749428 67.383858,66.467201 
	C69.950958,57.465977 69.797424,48.648731 67.018723,39.395428 
	C67.000000,39.000000 66.999390,39.000763 66.999390,39.000763 
	C68.199715,38.509216 69.400032,38.017673 71.211311,37.263031 
	C73.414124,37.579166 75.005981,38.158405 76.597839,38.737644 
	C75.098663,40.768539 73.599487,42.799435 71.238029,45.998440 
	C73.364120,45.998440 75.181206,45.998440 76.998634,46.467278 
	C76.998215,55.629955 76.997452,64.323799 76.787842,73.250336 
	C72.632881,79.127060 79.994865,76.250008 79.953224,78.492126 
	C78.636459,81.938225 77.562630,85.411118 77.081177,88.964264 
	C76.687309,91.870956 76.999748,94.873360 76.999062,97.833328 
	C74.625290,97.880463 72.251518,97.927589 69.437691,97.904541 
z"/>
<path fill="#2C97DF" opacity="1.000000" stroke="none" 
	d="
M105.575256,22.078022 
	C105.935242,27.246943 105.831993,32.347046 105.791931,37.447647 
	C105.743698,43.589169 107.358978,50.169933 100.594635,54.902752 
	C98.333038,54.283638 96.582642,53.373760 95.073502,52.127815 
	C95.659935,46.833355 96.576385,41.830643 96.196075,36.928528 
	C95.782547,31.598091 95.787605,26.650961 98.988243,22.139763 
	C101.038834,22.096317 103.089417,22.052870 105.575256,22.078022 
z"/>
<path fill="#2A99DE" opacity="1.000000" stroke="none" 
	d="
M106.961533,59.027439 
	C107.555222,60.064388 108.702393,61.126484 108.656609,62.134384 
	C108.219505,71.756187 107.560860,81.367706 107.015602,90.985001 
	C106.903831,92.956429 106.999496,94.939621 106.999496,97.375465 
	C105.604050,97.880302 104.208649,97.927071 102.254616,97.733734 
	C101.484169,97.282547 101.252617,97.095963 101.001053,96.472214 
	C100.998718,87.354210 101.176102,78.691032 100.846001,70.047241 
	C100.778427,68.278084 98.808617,66.581573 97.940735,64.581863 
	C101.097717,62.550579 104.029625,60.789009 106.961533,59.027439 
z"/>
<path fill="#3D89E4" opacity="1.000000" stroke="none" 
	d="
M77.397446,97.903885 
	C76.999748,94.873360 76.687309,91.870956 77.081177,88.964264 
	C77.562630,85.411118 78.636459,81.938225 79.953224,78.492126 
	C79.994865,76.250008 72.632881,79.127060 77.041245,73.223930 
	C77.670250,72.932877 77.837029,72.900909 78.215797,73.115295 
	C80.940132,72.538757 83.452477,71.715851 86.029129,71.232269 
	C86.396950,80.029259 86.700462,88.486938 86.613083,96.956345 
	C84.488441,97.259064 82.754684,97.550034 81.020920,97.841003 
	C79.945892,97.885483 78.870865,97.929970 77.397446,97.903885 
z"/>
<path fill="#3391E1" opacity="1.000000" stroke="none" 
	d="
M98.548950,22.072018 
	C95.787605,26.650961 95.782547,31.598091 96.196075,36.928528 
	C96.576385,41.830643 95.659935,46.833355 94.743927,52.020226 
	C92.421516,51.229408 90.669945,50.210125 88.924049,48.783447 
	C87.589935,44.163116 90.792931,38.671211 84.387970,35.678024 
	C86.840904,35.113495 88.384346,34.758282 88.652679,34.696526 
	C89.540001,29.958090 90.271126,26.053768 91.002251,22.149445 
	C93.371384,22.101055 95.740524,22.052666 98.548950,22.072018 
z"/>
<path fill="#3A8CE3" opacity="1.000000" stroke="none" 
	d="
M90.552155,22.080772 
	C90.271126,26.053768 89.540001,29.958090 88.652679,34.696526 
	C88.384346,34.758282 86.840904,35.113495 84.387970,35.678024 
	C90.792931,38.671211 87.589935,44.163116 88.570816,48.721260 
	C85.139977,47.502621 82.068054,45.938782 79.180519,44.101269 
	C79.909630,42.884758 80.454353,41.941921 81.315125,40.990616 
	C82.395401,40.429382 83.159637,39.876617 83.923866,39.323853 
	C83.461205,38.897266 82.998550,38.470680 82.535889,38.044094 
	C82.024231,39.029701 81.512573,40.015308 80.687561,40.833706 
	C80.126740,39.016071 79.583061,37.346470 79.688423,35.718884 
	C79.981781,31.186918 80.544518,26.672388 81.000870,22.150974 
	C84.034599,22.104681 87.068336,22.058390 90.552155,22.080772 
z"/>
<path fill="#4185E6" opacity="1.000000" stroke="none" 
	d="
M80.999084,40.999084 
	C80.454353,41.941921 79.909630,42.884758 79.039116,44.265697 
	C78.497887,44.897213 78.273071,45.079033 77.840958,45.335091 
	C77.397911,45.579689 77.182999,45.772194 76.998291,45.998440 
	C75.181206,45.998440 73.364120,45.998440 71.238029,45.998440 
	C73.599487,42.799435 75.098663,40.768539 76.597839,38.737644 
	C75.005981,38.158405 73.414124,37.579166 71.414948,36.998138 
	C69.890198,32.585617 72.372231,27.673056 69.048172,23.225128 
	C72.673912,22.597975 76.385605,22.303665 80.549080,22.080166 
	C80.544518,26.672388 79.981781,31.186918 79.688423,35.718884 
	C79.583061,37.346470 80.126740,39.016071 80.687103,40.833248 
	C81.000000,41.000000 80.999084,40.999084 80.999084,40.999084 
z"/>
<path fill="#10AED8" opacity="1.000000" stroke="none" 
	d="
M140.800110,30.656590 
	C139.563049,31.976067 138.165588,32.834358 137.044846,33.966568 
	C135.175720,35.854824 133.483719,37.918407 131.360794,39.955647 
	C130.773651,39.037983 130.591660,38.058067 130.304413,37.110039 
	C127.813507,28.888828 128.222427,28.165022 134.804382,25.127003 
	C137.001556,26.732832 138.882828,28.525673 140.800110,30.656590 
z"/>
<path fill="#18B3CF" opacity="1.000000" stroke="none" 
	d="
M132.703644,93.140945 
	C134.943527,91.804886 136.956482,90.709229 138.799210,89.377945 
	C140.044006,88.478630 141.048965,87.247330 142.498535,86.072021 
	C141.550034,92.054550 138.173447,96.020508 131.398590,96.885193 
	C131.480789,95.646393 131.942520,94.463707 132.703644,93.140945 
z"/>
<path fill="#5177F6" opacity="1.000000" stroke="none" 
	d="
M57.395329,24.033295 
	C54.854374,24.063318 52.698067,24.128525 50.213837,24.067009 
	C54.787380,23.361214 59.688847,22.782141 64.812149,22.827518 
	C65.028320,23.629044 65.022659,23.806114 65.016991,23.983187 
	C62.604652,24.011616 60.192314,24.040045 57.395329,24.033295 
z"/>
<path fill="#4C8AC1" opacity="1.000000" stroke="none" 
	d="
M81.240074,97.913368 
	C82.754684,97.550034 84.488441,97.259064 87.041473,96.972382 
	C89.577347,96.963379 91.293968,96.950081 93.453964,96.949394 
	C96.265335,96.952629 98.633324,96.943260 101.001312,96.933891 
	C101.252617,97.095963 101.484169,97.282547 101.840614,97.663658 
	C101.985252,97.833687 101.540657,97.976227 100.834961,97.993919 
	C94.059235,98.015976 87.989204,98.020332 81.919167,98.024696 
	C81.919167,98.024696 81.459229,97.985733 81.240074,97.913368 
z"/>
<path fill="#52ADF8" opacity="1.000000" stroke="none" 
	d="
M82.147675,98.399185 
	C87.989204,98.020332 94.059235,98.015976 100.602386,98.014053 
	C94.842392,98.268890 88.609283,98.521286 82.147675,98.399185 
z"/>
<path fill="#4185E6" opacity="1.000000" stroke="none" 
	d="
M65.279716,23.930735 
	C65.022659,23.806114 65.028320,23.629044 65.048874,23.186941 
	C65.492668,22.961746 65.921577,23.001583 66.665916,23.113091 
	C66.501717,23.415937 66.022079,23.647110 65.279716,23.930735 
z"/>
<path fill="#4381E8" opacity="1.000000" stroke="none" 
	d="
M67.000305,38.999702 
	C66.521759,38.436378 66.041519,37.874466 65.579765,37.297749 
	C65.573936,37.290474 65.804443,37.093979 65.924637,36.985809 
	C66.265610,37.475533 66.606575,37.965260 66.973465,38.727875 
	C66.999390,39.000763 67.000000,39.000000 67.000305,38.999702 
z"/>
<path fill="#11ADD8" opacity="1.000000" stroke="none" 
	d="
M130.638123,43.119625 
	C132.096039,43.069794 133.194687,43.140526 135.471222,43.287094 
	C134.883545,49.776859 134.026596,56.264290 133.795532,62.773937 
	C133.623917,67.608345 134.516693,72.474464 134.461319,77.321037 
	C134.418945,81.031380 133.635559,84.733246 133.093658,88.717026 
	C131.203720,88.834152 129.052948,89.208344 130.143677,86.007263 
	C130.475769,85.032608 129.649384,83.654091 129.326904,82.467781 
	C128.902145,80.905136 127.737556,79.139397 128.124985,77.824562 
	C131.038803,67.935905 126.748573,58.126362 128.082748,48.320133 
	C128.322250,46.559807 129.522308,44.930168 130.638123,43.119625 
z"/>
<path fill="#EFF8FB" opacity="1.000000" stroke="none" 
	d="
M78.038879,45.249260 
	C78.273071,45.079033 78.497887,44.897213 78.854729,44.539371 
	C82.068054,45.938782 85.139977,47.502621 88.565140,49.128651 
	C90.669945,50.210125 92.421516,51.229408 94.502670,52.356289 
	C96.582642,53.373760 98.333038,54.283638 100.419693,55.231621 
	C100.755959,55.269722 100.859306,55.302761 100.968384,55.517475 
	C101.720795,56.068073 102.364113,56.403957 103.007439,56.739838 
	C104.120995,57.426109 105.234550,58.112373 106.654816,58.913040 
	C104.029625,60.789009 101.097717,62.550579 97.744942,64.598518 
	C97.324074,64.884888 97.010284,65.120506 96.663788,65.161636 
	C92.866455,67.099503 89.415634,68.996223 85.964813,70.892944 
	C83.452477,71.715851 80.940132,72.538757 78.298630,72.667412 
	C78.125946,63.065197 78.082413,54.157230 78.038879,45.249260 
z"/>
<path fill="#2C97DF" opacity="1.000000" stroke="none" 
	d="
M102.886230,56.488079 
	C102.364113,56.403957 101.720795,56.068073 100.990387,55.467880 
	C101.523872,55.547821 102.144440,55.892071 102.886230,56.488079 
z"/>
<path fill="#5481BF" opacity="1.000000" stroke="none" 
	d="
M77.840958,45.335091 
	C78.082413,54.157230 78.125946,63.065197 78.086639,72.421051 
	C77.837029,72.900909 77.670250,72.932877 77.250076,72.991241 
	C76.997452,64.323799 76.998215,55.629955 76.998634,46.467278 
	C77.182999,45.772194 77.397911,45.579689 77.840958,45.335091 
z"/>
<path fill="#2E94E0" opacity="1.000000" stroke="none" 
	d="
M97.010284,65.120506 
	C97.010284,65.120506 97.324074,64.884888 97.519867,64.868233 
	C98.808617,66.581573 100.778427,68.278084 100.846001,70.047241 
	C101.176102,78.691032 100.998718,87.354210 101.001053,96.472214 
	C98.633324,96.943260 96.265335,96.952629 93.450829,96.487701 
	C94.049675,89.135536 90.359901,81.593781 96.049347,75.359169 
	C94.917389,74.136902 93.862793,72.998177 93.480095,72.584946 
	C94.867348,69.651649 95.938812,67.386078 97.010284,65.120506 
z"/>
<path fill="#368EE0" opacity="1.000000" stroke="none" 
	d="
M96.663780,65.161636 
	C95.938812,67.386078 94.867348,69.651649 93.480095,72.584946 
	C93.862793,72.998177 94.917389,74.136902 96.049347,75.359169 
	C90.359901,81.593781 94.049675,89.135536 93.007446,96.475098 
	C91.293968,96.950081 89.577347,96.963379 87.432350,96.960648 
	C86.700462,88.486938 86.396950,80.029259 86.029129,71.232269 
	C89.415634,68.996223 92.866455,67.099503 96.663780,65.161636 
z"/>
<path fill="#4185E6" opacity="1.000000" stroke="none" 
	d="
M81.000458,41.000458 
	C81.512573,40.015308 82.024231,39.029701 82.535889,38.044094 
	C82.998550,38.470680 83.461205,38.897266 83.923866,39.323853 
	C83.159637,39.876617 82.395401,40.429382 81.315125,40.990616 
	C80.999084,40.999084 81.000000,41.000000 81.000458,41.000458 
z"/>
</svg>